<mxfile host="app.diagrams.net" modified="2023-02-14T03:19:01.157Z" agent="5.0 (Windows)" etag="tnPP5AaEnm3K0svnplQU" version="20.8.20" type="github">
  <diagram name="Page-1" id="8lw3GLmkUHytuyLt9ojc">
    <mxGraphModel dx="1938" dy="600" grid="1" gridSize="10" guides="1" tooltips="1" connect="1" arrows="1" fold="1" page="1" pageScale="1" pageWidth="850" pageHeight="1100" math="0" shadow="0">
      <root>
        <mxCell id="0" />
        <mxCell id="1" parent="0" />
        <mxCell id="1HVkLN7lkr0ZGDEyL-Oj-1" value="start" style="ellipse;whiteSpace=wrap;html=1;" vertex="1" parent="1">
          <mxGeometry x="410" y="30" width="120" height="80" as="geometry" />
        </mxCell>
        <mxCell id="1HVkLN7lkr0ZGDEyL-Oj-2" value="" style="endArrow=classic;html=1;rounded=0;" edge="1" parent="1">
          <mxGeometry width="50" height="50" relative="1" as="geometry">
            <mxPoint x="469.5" y="110" as="sourcePoint" />
            <mxPoint x="469.5" y="180" as="targetPoint" />
          </mxGeometry>
        </mxCell>
        <mxCell id="1HVkLN7lkr0ZGDEyL-Oj-3" value="get random definition " style="rounded=0;whiteSpace=wrap;html=1;" vertex="1" parent="1">
          <mxGeometry x="410" y="300" width="120" height="60" as="geometry" />
        </mxCell>
        <mxCell id="1HVkLN7lkr0ZGDEyL-Oj-4" value="" style="endArrow=classic;html=1;rounded=0;" edge="1" parent="1">
          <mxGeometry width="50" height="50" relative="1" as="geometry">
            <mxPoint x="469.5" y="360" as="sourcePoint" />
            <mxPoint x="470" y="430" as="targetPoint" />
          </mxGeometry>
        </mxCell>
        <mxCell id="1HVkLN7lkr0ZGDEyL-Oj-6" value="user inputs word " style="shape=parallelogram;perimeter=parallelogramPerimeter;whiteSpace=wrap;html=1;fixedSize=1;" vertex="1" parent="1">
          <mxGeometry x="410" y="430" width="120" height="60" as="geometry" />
        </mxCell>
        <mxCell id="1HVkLN7lkr0ZGDEyL-Oj-7" value="outcome correct or incorrect" style="rhombus;whiteSpace=wrap;html=1;" vertex="1" parent="1">
          <mxGeometry x="430" y="530" width="80" height="80" as="geometry" />
        </mxCell>
        <mxCell id="1HVkLN7lkr0ZGDEyL-Oj-8" value="" style="endArrow=classic;html=1;rounded=0;" edge="1" parent="1">
          <mxGeometry width="50" height="50" relative="1" as="geometry">
            <mxPoint x="469.5" y="490" as="sourcePoint" />
            <mxPoint x="469.5" y="530" as="targetPoint" />
          </mxGeometry>
        </mxCell>
        <mxCell id="1HVkLN7lkr0ZGDEyL-Oj-9" value="" style="endArrow=classic;html=1;rounded=0;" edge="1" parent="1">
          <mxGeometry width="50" height="50" relative="1" as="geometry">
            <mxPoint x="430" y="569.5" as="sourcePoint" />
            <mxPoint x="390" y="569.5" as="targetPoint" />
          </mxGeometry>
        </mxCell>
        <mxCell id="1HVkLN7lkr0ZGDEyL-Oj-10" value="correct word" style="text;html=1;strokeColor=none;fillColor=none;align=center;verticalAlign=middle;whiteSpace=wrap;rounded=0;" vertex="1" parent="1">
          <mxGeometry x="390" y="530" width="60" height="30" as="geometry" />
        </mxCell>
        <mxCell id="1HVkLN7lkr0ZGDEyL-Oj-11" value="incorrect word" style="text;html=1;strokeColor=none;fillColor=none;align=center;verticalAlign=middle;whiteSpace=wrap;rounded=0;" vertex="1" parent="1">
          <mxGeometry x="500" y="530" width="60" height="30" as="geometry" />
        </mxCell>
        <mxCell id="1HVkLN7lkr0ZGDEyL-Oj-13" value="" style="endArrow=classic;html=1;rounded=0;" edge="1" parent="1">
          <mxGeometry width="50" height="50" relative="1" as="geometry">
            <mxPoint x="510" y="569.5" as="sourcePoint" />
            <mxPoint x="570" y="570" as="targetPoint" />
          </mxGeometry>
        </mxCell>
        <mxCell id="1HVkLN7lkr0ZGDEyL-Oj-14" value="show a message saying word was incorrect" style="rounded=0;whiteSpace=wrap;html=1;" vertex="1" parent="1">
          <mxGeometry x="570" y="540" width="120" height="60" as="geometry" />
        </mxCell>
        <mxCell id="1HVkLN7lkr0ZGDEyL-Oj-15" value="" style="endArrow=classic;html=1;rounded=0;" edge="1" parent="1">
          <mxGeometry width="50" height="50" relative="1" as="geometry">
            <mxPoint x="690" y="569.5" as="sourcePoint" />
            <mxPoint x="750" y="569.5" as="targetPoint" />
          </mxGeometry>
        </mxCell>
        <mxCell id="1HVkLN7lkr0ZGDEyL-Oj-17" value="" style="endArrow=classic;html=1;rounded=0;" edge="1" parent="1">
          <mxGeometry width="50" height="50" relative="1" as="geometry">
            <mxPoint x="750" y="570" as="sourcePoint" />
            <mxPoint x="751" y="210" as="targetPoint" />
          </mxGeometry>
        </mxCell>
        <mxCell id="1HVkLN7lkr0ZGDEyL-Oj-18" value="" style="endArrow=classic;html=1;rounded=0;entryX=1;entryY=0.5;entryDx=0;entryDy=0;" edge="1" parent="1" target="1HVkLN7lkr0ZGDEyL-Oj-57">
          <mxGeometry width="50" height="50" relative="1" as="geometry">
            <mxPoint x="750" y="210" as="sourcePoint" />
            <mxPoint x="700" y="470" as="targetPoint" />
            <Array as="points" />
          </mxGeometry>
        </mxCell>
        <mxCell id="1HVkLN7lkr0ZGDEyL-Oj-21" value="show a message saying word was correct" style="rounded=0;whiteSpace=wrap;html=1;" vertex="1" parent="1">
          <mxGeometry x="270" y="540" width="120" height="60" as="geometry" />
        </mxCell>
        <mxCell id="1HVkLN7lkr0ZGDEyL-Oj-23" value="" style="endArrow=classic;html=1;rounded=0;" edge="1" parent="1">
          <mxGeometry width="50" height="50" relative="1" as="geometry">
            <mxPoint x="270" y="569.5" as="sourcePoint" />
            <mxPoint x="230" y="569.5" as="targetPoint" />
          </mxGeometry>
        </mxCell>
        <mxCell id="1HVkLN7lkr0ZGDEyL-Oj-24" value="add 1 to score" style="rounded=0;whiteSpace=wrap;html=1;" vertex="1" parent="1">
          <mxGeometry x="110" y="540" width="120" height="60" as="geometry" />
        </mxCell>
        <mxCell id="1HVkLN7lkr0ZGDEyL-Oj-25" value="if score =10 " style="rhombus;whiteSpace=wrap;html=1;" vertex="1" parent="1">
          <mxGeometry x="130" y="630" width="80" height="80" as="geometry" />
        </mxCell>
        <mxCell id="1HVkLN7lkr0ZGDEyL-Oj-27" value="show a message saying they beat the game " style="rounded=0;whiteSpace=wrap;html=1;" vertex="1" parent="1">
          <mxGeometry x="110" y="760" width="120" height="60" as="geometry" />
        </mxCell>
        <mxCell id="1HVkLN7lkr0ZGDEyL-Oj-29" value="" style="endArrow=classic;html=1;rounded=0;" edge="1" parent="1">
          <mxGeometry width="50" height="50" relative="1" as="geometry">
            <mxPoint x="169.5" y="600" as="sourcePoint" />
            <mxPoint x="170" y="630" as="targetPoint" />
          </mxGeometry>
        </mxCell>
        <mxCell id="1HVkLN7lkr0ZGDEyL-Oj-32" value="" style="endArrow=classic;html=1;rounded=0;" edge="1" parent="1">
          <mxGeometry width="50" height="50" relative="1" as="geometry">
            <mxPoint x="130" y="670" as="sourcePoint" />
            <mxPoint y="670" as="targetPoint" />
          </mxGeometry>
        </mxCell>
        <mxCell id="1HVkLN7lkr0ZGDEyL-Oj-35" value="no" style="text;html=1;strokeColor=none;fillColor=none;align=center;verticalAlign=middle;whiteSpace=wrap;rounded=0;" vertex="1" parent="1">
          <mxGeometry x="90" y="640" width="30" height="30" as="geometry" />
        </mxCell>
        <mxCell id="1HVkLN7lkr0ZGDEyL-Oj-39" value="" style="endArrow=classic;html=1;rounded=0;" edge="1" parent="1">
          <mxGeometry width="50" height="50" relative="1" as="geometry">
            <mxPoint y="920" as="sourcePoint" />
            <mxPoint y="210" as="targetPoint" />
          </mxGeometry>
        </mxCell>
        <mxCell id="1HVkLN7lkr0ZGDEyL-Oj-40" value="" style="endArrow=classic;html=1;rounded=0;entryX=0;entryY=0.5;entryDx=0;entryDy=0;" edge="1" parent="1" target="1HVkLN7lkr0ZGDEyL-Oj-57">
          <mxGeometry width="50" height="50" relative="1" as="geometry">
            <mxPoint y="210" as="sourcePoint" />
            <mxPoint x="150" y="490" as="targetPoint" />
          </mxGeometry>
        </mxCell>
        <mxCell id="1HVkLN7lkr0ZGDEyL-Oj-41" value="" style="endArrow=classic;html=1;rounded=0;" edge="1" parent="1">
          <mxGeometry width="50" height="50" relative="1" as="geometry">
            <mxPoint x="169.5" y="710" as="sourcePoint" />
            <mxPoint x="169.5" y="760" as="targetPoint" />
          </mxGeometry>
        </mxCell>
        <mxCell id="1HVkLN7lkr0ZGDEyL-Oj-42" value="yes" style="text;html=1;strokeColor=none;fillColor=none;align=center;verticalAlign=middle;whiteSpace=wrap;rounded=0;" vertex="1" parent="1">
          <mxGeometry x="180" y="710" width="60" height="30" as="geometry" />
        </mxCell>
        <mxCell id="1HVkLN7lkr0ZGDEyL-Oj-44" value="reset button or continue" style="rhombus;whiteSpace=wrap;html=1;" vertex="1" parent="1">
          <mxGeometry x="130" y="880" width="80" height="80" as="geometry" />
        </mxCell>
        <mxCell id="1HVkLN7lkr0ZGDEyL-Oj-45" value="" style="endArrow=classic;html=1;rounded=0;" edge="1" parent="1">
          <mxGeometry width="50" height="50" relative="1" as="geometry">
            <mxPoint x="169.5" y="820" as="sourcePoint" />
            <mxPoint x="169.5" y="880" as="targetPoint" />
          </mxGeometry>
        </mxCell>
        <mxCell id="1HVkLN7lkr0ZGDEyL-Oj-46" value="" style="endArrow=classic;html=1;rounded=0;" edge="1" parent="1">
          <mxGeometry width="50" height="50" relative="1" as="geometry">
            <mxPoint x="130" y="919.5" as="sourcePoint" />
            <mxPoint y="920" as="targetPoint" />
          </mxGeometry>
        </mxCell>
        <mxCell id="1HVkLN7lkr0ZGDEyL-Oj-49" value="" style="endArrow=classic;html=1;rounded=0;" edge="1" parent="1">
          <mxGeometry width="50" height="50" relative="1" as="geometry">
            <mxPoint x="210" y="919.5" as="sourcePoint" />
            <mxPoint x="270" y="919.5" as="targetPoint" />
          </mxGeometry>
        </mxCell>
        <mxCell id="1HVkLN7lkr0ZGDEyL-Oj-52" value="continue" style="text;html=1;strokeColor=none;fillColor=none;align=center;verticalAlign=middle;whiteSpace=wrap;rounded=0;" vertex="1" parent="1">
          <mxGeometry x="40" y="890" width="60" height="30" as="geometry" />
        </mxCell>
        <mxCell id="1HVkLN7lkr0ZGDEyL-Oj-53" value="reset" style="text;html=1;strokeColor=none;fillColor=none;align=center;verticalAlign=middle;whiteSpace=wrap;rounded=0;" vertex="1" parent="1">
          <mxGeometry x="210" y="890" width="60" height="30" as="geometry" />
        </mxCell>
        <mxCell id="1HVkLN7lkr0ZGDEyL-Oj-54" value="&lt;div&gt;reset score&lt;/div&gt;&lt;div&gt;&lt;br&gt;&lt;/div&gt;" style="rounded=0;whiteSpace=wrap;html=1;" vertex="1" parent="1">
          <mxGeometry x="270" y="890" width="120" height="60" as="geometry" />
        </mxCell>
        <mxCell id="1HVkLN7lkr0ZGDEyL-Oj-57" value="new button" style="shape=parallelogram;perimeter=parallelogramPerimeter;whiteSpace=wrap;html=1;fixedSize=1;" vertex="1" parent="1">
          <mxGeometry x="410" y="180" width="120" height="60" as="geometry" />
        </mxCell>
        <mxCell id="1HVkLN7lkr0ZGDEyL-Oj-58" value="" style="endArrow=classic;html=1;rounded=0;" edge="1" parent="1">
          <mxGeometry width="50" height="50" relative="1" as="geometry">
            <mxPoint x="469" y="240" as="sourcePoint" />
            <mxPoint x="469" y="300" as="targetPoint" />
          </mxGeometry>
        </mxCell>
        <mxCell id="1HVkLN7lkr0ZGDEyL-Oj-61" value="" style="endArrow=classic;html=1;rounded=0;" edge="1" parent="1">
          <mxGeometry width="50" height="50" relative="1" as="geometry">
            <mxPoint x="390" y="920" as="sourcePoint" />
            <mxPoint x="750" y="920" as="targetPoint" />
          </mxGeometry>
        </mxCell>
        <mxCell id="1HVkLN7lkr0ZGDEyL-Oj-62" value="" style="endArrow=classic;html=1;rounded=0;" edge="1" parent="1">
          <mxGeometry width="50" height="50" relative="1" as="geometry">
            <mxPoint x="750" y="920" as="sourcePoint" />
            <mxPoint x="750" y="210" as="targetPoint" />
          </mxGeometry>
        </mxCell>
      </root>
    </mxGraphModel>
  </diagram>
</mxfile>
